<svg width="16" height="18" viewBox="0 0 16 18" fill="none" xmlns="http://www.w3.org/2000/svg">
<path d="M4.07132 8.21425V5.07139C4.07132 4.02947 4.48523 3.03022 5.22198 2.29347C5.95873 1.55672 6.95797 1.14282 7.9999 1.14282C9.04182 1.14282 10.0411 1.55672 10.7778 2.29347C11.5146 3.03022 11.9285 4.02947 11.9285 5.07139V8.21425M2.4999 8.21425H13.4999C14.3678 8.21425 15.0713 8.9178 15.0713 9.78568V15.2857C15.0713 16.1536 14.3678 16.8571 13.4999 16.8571H2.4999C1.63202 16.8571 0.928467 16.1536 0.928467 15.2857V9.78568C0.928467 8.9178 1.63202 8.21425 2.4999 8.21425Z" stroke="white" stroke-opacity="0.9" stroke-linecap="round"/>
</svg>
