<svg width="14" height="20" viewBox="0 0 14 20" fill="none" xmlns="http://www.w3.org/2000/svg">
<path d="M13.2063 16.375C13.2063 17.8 12.0438 19 10.5813 19H3.41876C1.99376 19 0.793762 17.8 0.793762 16.375V3.625C0.793762 2.2 1.99376 1 3.41876 1H10.5813C12.0438 1 13.2063 2.2 13.2063 3.625V16.375Z" stroke="white" stroke-opacity="0.9" stroke-width="0.8" stroke-miterlimit="10"/>
<path d="M11.4438 2.94998H2.55627V6.21248H11.4438V2.94998Z" stroke="white" stroke-opacity="0.9" stroke-width="0.8" stroke-miterlimit="10"/>
<path d="M4.35627 8.38748H2.55627V10.1125H4.35627V8.38748Z" stroke="white" stroke-opacity="0.9" stroke-width="0.8" stroke-miterlimit="10"/>
<path d="M7.91877 8.38748H6.11877V10.1125H7.91877V8.38748Z" stroke="white" stroke-opacity="0.9" stroke-width="0.8" stroke-miterlimit="10"/>
<path d="M11.4438 8.38748H9.6438V10.1125H11.4438V8.38748Z" stroke="white" stroke-opacity="0.9" stroke-width="0.8" stroke-miterlimit="10"/>
<path d="M4.35627 11.5H2.55627V13.225H4.35627V11.5Z" stroke="white" stroke-opacity="0.9" stroke-width="0.8" stroke-miterlimit="10"/>
<path d="M7.91877 11.5H6.11877V13.225H7.91877V11.5Z" stroke="white" stroke-opacity="0.9" stroke-width="0.8" stroke-miterlimit="10"/>
<path d="M11.4438 11.5H9.6438V13.225H11.4438V11.5Z" stroke="white" stroke-opacity="0.9" stroke-width="0.8" stroke-miterlimit="10"/>
<path d="M4.35627 14.575H2.55627V16.3H4.35627V14.575Z" stroke="white" stroke-opacity="0.9" stroke-width="0.8" stroke-miterlimit="10"/>
<path d="M7.91877 14.575H6.11877V16.3H7.91877V14.575Z" stroke="white" stroke-opacity="0.9" stroke-width="0.8" stroke-miterlimit="10"/>
<path d="M11.4438 14.575H9.6438V16.3H11.4438V14.575Z" stroke="white" stroke-opacity="0.9" stroke-width="0.8" stroke-miterlimit="10"/>
</svg>
