<svg width="39" height="35" viewBox="0 0 39 35" fill="none" xmlns="http://www.w3.org/2000/svg">
<path d="M13.025 22.4569H3.775M26.9 22.4569H35.6875M3.775 22.4569H2C1.44771 22.4569 1 22.0092 1 21.4569V11.9139C1 11.3616 1.44772 10.9139 2 10.9139H10.25M3.775 22.4569V33C3.775 33.5523 4.22272 34 4.775 34H19.7313M35.6875 22.4569H37C37.5523 22.4569 38 22.0092 38 21.4569V11.9139C38 11.3616 37.5523 10.9139 37 10.9139H28.75M35.6875 22.4569V33C35.6875 33.5523 35.2398 34 34.6875 34H19.7313M19.5 10.9139L19.7313 34M19.5 10.9139H10.25M19.5 10.9139C19.0375 6.47387 12.3775 -1.16424 7.9375 2.0323C3.4975 5.22884 7.475 9.58196 10.25 10.9139M19.5 10.9139C21.9667 6.62224 25.975 -1.96251 31.0625 2.0333C35.7241 5.69456 31.8333 9.87789 28.75 10.9139M19.5 10.9139H28.75" stroke="#F2BF5E" stroke-linecap="round" stroke-linejoin="round"/>
</svg>
