<?xml version="1.0" encoding="utf-8"?>
<!-- Generator: Adobe Illustrator 24.1.0, SVG Export Plug-In . SVG Version: 6.00 Build 0)  -->
<svg version="1.1" xmlns="http://www.w3.org/2000/svg" xmlns:xlink="http://www.w3.org/1999/xlink" x="0px" y="0px"
	 viewBox="0 0 134.7 13.3" style="enable-background:new 0 0 134.7 13.3;" xml:space="preserve">
<style type="text/css">
	.st0{fill:#FFFFFF;}
	.st1{clip-path:url(#SVGID_2_);}
	.st2{fill:#093976;}
	.st3{clip-path:url(#SVGID_4_);}
	.st4{clip-path:url(#SVGID_6_);fill:#FFFFFF;fill-opacity:0.9;}
	.st5{clip-path:url(#SVGID_8_);fill:#FFFFFF;fill-opacity:0.9;}
	.st6{clip-path:url(#SVGID_10_);fill:#FFFFFF;fill-opacity:0.9;}
	.st7{clip-path:url(#SVGID_12_);fill:none;stroke:#FFFFFF;stroke-linecap:round;stroke-miterlimit:10;stroke-opacity:0.9;}
	.st8{clip-path:url(#SVGID_14_);fill:none;stroke:#FFFFFF;stroke-linecap:round;stroke-miterlimit:10;stroke-opacity:0.9;}
	.st9{clip-path:url(#SVGID_16_);fill:none;stroke:#FFFFFF;stroke-linecap:round;stroke-miterlimit:10;stroke-opacity:0.9;}
	.st10{clip-path:url(#SVGID_18_);fill:none;stroke:#FFFFFF;stroke-linecap:round;stroke-miterlimit:10;stroke-opacity:0.9;}
	.st11{clip-path:url(#SVGID_20_);fill:none;stroke:#FFFFFF;stroke-linecap:round;stroke-miterlimit:10;stroke-opacity:0.9;}
	.st12{clip-path:url(#SVGID_22_);fill:none;stroke:#FFFFFF;stroke-linecap:round;stroke-miterlimit:10;stroke-opacity:0.9;}
	.st13{clip-path:url(#SVGID_24_);fill:none;stroke:#FFFFFF;stroke-linecap:round;stroke-miterlimit:10;stroke-opacity:0.9;}
	.st14{clip-path:url(#SVGID_26_);fill:#FFFFFF;fill-opacity:0.9;}
</style>
<g id="Livello_2">
	<rect y="0" class="st0" width="134.7" height="13.3"/>
</g>
<g id="Layer_1">
	<g>
		<g>
			<g>
				<defs>
					<rect id="SVGID_1_" y="0" width="134.7" height="13.3"/>
				</defs>
				<clipPath id="SVGID_2_">
					<use xlink:href="#SVGID_1_"  style="overflow:visible;"/>
				</clipPath>
				<g class="st1">
					<path class="st2" d="M-107.7,20.1c0-8.3,6.7-15,15-15H51.9c5.5,0,10.2,6.8,15.7,6.8s10.2-6.8,15.7-6.8h139.1
						c8.3,0,15,6.7,15,15v33c0,8.3-6.7,15-15,15h-315c-8.3,0-15-6.7-15-15L-107.7,20.1L-107.7,20.1z"/>
				</g>
			</g>
		</g>
		<g>
			<g>
				<defs>
					<rect id="SVGID_3_" y="0" width="134.7" height="13.3"/>
				</defs>
				<clipPath id="SVGID_4_">
					<use xlink:href="#SVGID_3_"  style="overflow:visible;"/>
				</clipPath>
				<g class="st3">
					<circle class="st2" cx="67.3" cy="5.1" r="3"/>
				</g>
			</g>
		</g>
		<g>
			<g>
				<defs>
					<rect id="SVGID_5_" y="0" width="134.7" height="13.3"/>
				</defs>
				<clipPath id="SVGID_6_">
					<use xlink:href="#SVGID_5_"  style="overflow:visible;"/>
				</clipPath>
				<path class="st4" d="M-82.9,55.2c-0.1,0-0.2,0-0.3-0.1c-0.1-0.1-0.1-0.2-0.1-0.3v-6.3c0-0.1,0-0.2,0.1-0.3s0.2-0.1,0.3-0.1h2.4
					c0.7,0,1.3,0.2,1.7,0.5c0.4,0.4,0.6,0.9,0.6,1.5s-0.2,1.2-0.6,1.5c-0.4,0.4-1,0.5-1.7,0.5h-2v2.5c0,0.1,0,0.2-0.1,0.3
					C-82.7,55.1-82.8,55.2-82.9,55.2z M-80.6,51.5c1.1,0,1.6-0.5,1.6-1.4s-0.5-1.4-1.6-1.4h-1.9v2.8C-82.5,51.5-80.6,51.5-80.6,51.5
					z M-74.7,50.1c0.3,0,0.4,0.1,0.4,0.3c0,0.1,0,0.2-0.1,0.3s-0.2,0.1-0.3,0.1H-75c-0.4,0-0.8,0.2-1,0.5s-0.3,0.6-0.3,1v2.4
					c0,0.1,0,0.2-0.1,0.3s-0.2,0.1-0.3,0.1s-0.2,0-0.3-0.1c-0.1-0.1-0.1-0.2-0.1-0.3v-4.2c0-0.1,0-0.2,0.1-0.3s0.2-0.1,0.3-0.1
					c0.1,0,0.2,0,0.3,0.1c0.1,0.1,0.1,0.2,0.1,0.3v0.6c0.1-0.3,0.3-0.5,0.6-0.7c0.3-0.2,0.6-0.2,0.9-0.3L-74.7,50.1z M-71.6,55.2
					c-0.5,0-0.9-0.1-1.2-0.3c-0.3-0.2-0.6-0.5-0.8-0.9c-0.2-0.4-0.3-0.8-0.3-1.3s0.1-1,0.3-1.3c0.2-0.4,0.5-0.7,0.8-0.9
					c0.4-0.2,0.8-0.3,1.2-0.3c0.5,0,0.9,0.1,1.2,0.3c0.4,0.2,0.6,0.5,0.8,0.9c0.2,0.4,0.3,0.8,0.3,1.3s-0.1,1-0.3,1.3
					c-0.2,0.4-0.5,0.7-0.8,0.9C-70.8,55.1-71.2,55.2-71.6,55.2z M-71.6,54.5c0.5,0,0.8-0.2,1.1-0.5c0.3-0.3,0.4-0.8,0.4-1.4
					c0-0.6-0.1-1-0.4-1.4c-0.3-0.3-0.6-0.5-1.1-0.5s-0.8,0.2-1.1,0.5c-0.3,0.3-0.4,0.8-0.4,1.4c0,0.6,0.1,1.1,0.4,1.4
					C-72.5,54.3-72.1,54.5-71.6,54.5z M-64.4,50.2c0.1,0,0.2,0,0.3,0.1c0.1,0.1,0.1,0.1,0.1,0.2v4.2c0,0.1,0,0.2-0.1,0.3
					s-0.2,0.1-0.3,0.1c-0.1,0-0.2,0-0.3-0.1c-0.1-0.1-0.1-0.2-0.1-0.3v-3.9H-67v3.9c0,0.1,0,0.2-0.1,0.3s-0.2,0.1-0.3,0.1
					c-0.1,0-0.2,0-0.3-0.1c-0.1-0.1-0.1-0.2-0.1-0.3v-3.9h-0.7c-0.1,0-0.2,0-0.3-0.1c-0.1-0.1-0.1-0.1-0.1-0.2c0-0.1,0-0.2,0.1-0.2
					c0.1-0.1,0.2-0.1,0.3-0.1h0.7V50c0-0.6,0.2-1.1,0.5-1.4c0.3-0.3,0.7-0.5,1.3-0.6h0.2c0.3,0,0.5,0.1,0.5,0.3s-0.1,0.3-0.3,0.3
					h-0.2c-0.4,0-0.6,0.1-0.8,0.3c-0.2,0.2-0.3,0.5-0.3,0.9v0.3L-64.4,50.2L-64.4,50.2z M-64.4,48.1c0.2,0,0.3,0,0.4,0.1
					s0.2,0.2,0.2,0.4s0,0.3-0.1,0.4c-0.1,0.1-0.2,0.1-0.4,0.1s-0.3,0-0.4-0.1s-0.2-0.2-0.2-0.4c0-0.1,0.1-0.3,0.2-0.4
					C-64.7,48.1-64.6,48.1-64.4,48.1z M-60.3,54.5c0.2,0,0.3,0.1,0.3,0.3c0,0.1,0,0.2-0.1,0.3s-0.2,0.1-0.4,0.1h-0.3
					c-0.5,0-0.9-0.2-1.2-0.5s-0.4-0.7-0.4-1.3v-2.5h-0.7c-0.1,0-0.2,0-0.3-0.1s-0.1-0.1-0.1-0.2c0-0.1,0-0.2,0.1-0.2
					c0.1-0.1,0.2-0.1,0.3-0.1h0.7v-1.1c0-0.1,0-0.2,0.1-0.3s0.2-0.1,0.3-0.1s0.2,0,0.3,0.1s0.1,0.2,0.1,0.3v1.1h1.1
					c0.1,0,0.2,0,0.2,0.1c0.1,0.1,0.1,0.1,0.1,0.2c0,0.1,0,0.2-0.1,0.2c-0.1,0.1-0.1,0.1-0.2,0.1h-1.1v2.6c0,0.4,0.1,0.6,0.2,0.8
					c0.2,0.2,0.4,0.2,0.7,0.3L-60.3,54.5z M-50.2,48c0.1,0,0.2,0,0.3,0.1s0.1,0.2,0.1,0.3v6.3c0,0.1,0,0.2-0.1,0.3s-0.2,0.1-0.3,0.1
					s-0.2,0-0.3-0.1s-0.1-0.2-0.1-0.3v-5.1l-2.2,4.2c-0.1,0.2-0.2,0.3-0.4,0.3s-0.3-0.1-0.4-0.3l-2.2-4.1v5.1c0,0.1,0,0.2-0.1,0.3
					s-0.2,0.1-0.3,0.1s-0.2,0-0.3-0.1s-0.1-0.2-0.1-0.3v-6.3c0-0.1,0-0.2,0.1-0.3C-56.3,48-56.2,48-56,48s0.3,0.1,0.4,0.3l2.5,4.9
					l2.5-4.9c0.1-0.1,0.1-0.2,0.2-0.2C-50.3,48-50.3,48-50.2,48z M-47.7,55.2c-0.2,0-0.3,0-0.4-0.1c-0.1-0.1-0.2-0.2-0.2-0.4
					s0.1-0.3,0.2-0.4c0.1-0.1,0.2-0.2,0.4-0.2s0.3,0.1,0.4,0.2c0.1,0.1,0.2,0.2,0.2,0.4s-0.1,0.3-0.2,0.4
					C-47.5,55.1-47.6,55.2-47.7,55.2z M-43.4,55.2c-0.5,0-1-0.1-1.4-0.2c-0.5-0.2-0.8-0.4-1.1-0.6c-0.1-0.1-0.2-0.2-0.2-0.3
					s0-0.2,0.1-0.2c0.1-0.1,0.1-0.1,0.2-0.1c0.1,0,0.2,0,0.3,0.1c0.6,0.5,1.3,0.7,2.1,0.7c0.6,0,1-0.1,1.3-0.3s0.5-0.5,0.5-0.9
					c0-0.2-0.1-0.4-0.2-0.6c-0.1-0.1-0.3-0.3-0.6-0.3c-0.2-0.1-0.6-0.2-1-0.3c-0.5-0.1-1-0.3-1.3-0.4c-0.3-0.1-0.6-0.3-0.8-0.6
					s-0.3-0.6-0.3-1s0.1-0.8,0.3-1.1s0.5-0.6,0.9-0.7c0.4-0.2,0.8-0.3,1.3-0.3s0.9,0.1,1.3,0.2c0.4,0.1,0.7,0.3,1,0.6
					c0.1,0.1,0.2,0.2,0.2,0.3s0,0.2-0.1,0.2c-0.1,0.1-0.1,0.1-0.2,0.1s-0.2,0-0.3-0.1c-0.3-0.3-0.6-0.5-0.9-0.6
					c-0.3-0.1-0.6-0.2-1-0.2c-0.6,0-1,0.1-1.3,0.3s-0.5,0.5-0.5,1c0,0.4,0.1,0.6,0.4,0.8c0.3,0.2,0.7,0.3,1.2,0.5
					c0.6,0.1,1.1,0.3,1.4,0.4c0.3,0.1,0.6,0.3,0.9,0.5c0.2,0.2,0.3,0.6,0.3,1s-0.1,0.7-0.3,1s-0.5,0.5-0.9,0.7
					C-42.4,55.1-42.9,55.2-43.4,55.2z M-39.3,55.2c-0.2,0-0.3,0-0.4-0.1c-0.1-0.1-0.2-0.2-0.2-0.4s0.1-0.3,0.2-0.4
					c0.1-0.1,0.2-0.2,0.4-0.2s0.3,0.1,0.4,0.2c0.1,0.1,0.2,0.2,0.2,0.4s-0.1,0.3-0.2,0.4C-39,55.1-39.1,55.2-39.3,55.2z"/>
			</g>
		</g>
		<g>
			<g>
				<defs>
					<rect id="SVGID_7_" y="0" width="134.7" height="13.3"/>
				</defs>
				<clipPath id="SVGID_8_">
					<use xlink:href="#SVGID_7_"  style="overflow:visible;"/>
				</clipPath>
				<path class="st5" d="M-68,21.9h13.6v-1.6H-68V21.9z M-54.4,21.9c0.5,0,0.9,0.4,0.9,1h1.6c0-1.4-1.1-2.6-2.5-2.6V21.9z
					 M-53.5,22.9v3.6h1.6v-3.6H-53.5z M-53.5,26.5c0,0.6-0.4,1-0.9,1v1.6c1.4,0,2.5-1.2,2.5-2.6H-53.5z M-54.4,27.5H-68v1.6h13.6
					V27.5z M-68,27.5c-0.5,0-0.9-0.4-0.9-1h-1.6c0,1.4,1.1,2.6,2.5,2.6V27.5z M-68.9,26.5v-3.6h-1.6v3.6H-68.9z M-68.9,22.9
					c0-0.6,0.4-1,0.9-1v-1.6c-1.4,0-2.5,1.2-2.5,2.6H-68.9z M-68,32.7h13.6v-1.6H-68V32.7z M-54.4,32.7c0.5,0,0.9,0.4,0.9,1h1.6
					c0-1.4-1.1-2.6-2.5-2.6V32.7z M-53.5,33.7v3.6h1.6v-3.6H-53.5z M-53.5,37.3c0,0.6-0.4,1-0.9,1v1.6c1.4,0,2.5-1.2,2.5-2.6H-53.5z
					 M-54.4,38.3H-68v1.6h13.6V38.3z M-68,38.3c-0.5,0-0.9-0.4-0.9-1h-1.6c0,1.4,1.1,2.6,2.5,2.6V38.3z M-68.9,37.3v-3.6h-1.6v3.6
					H-68.9z M-68.9,33.7c0-0.6,0.4-1,0.9-1v-1.6c-1.4,0-2.5,1.2-2.5,2.6H-68.9z M-66.2,35.5C-66.2,35.5-66.2,35.6-66.2,35.5
					C-66.3,35.6-66.3,35.6-66.2,35.5C-66.3,35.6-66.3,35.6-66.2,35.5l-0.1,1.7c1,0,1.7-0.8,1.7-1.7H-66.2z M-66.3,35.6L-66.3,35.6
					L-66.3,35.6L-66.3,35.6l-1.7-0.1c0,0.9,0.7,1.7,1.6,1.7C-66.3,37.2-66.3,35.6-66.3,35.6z M-66.3,35.5
					C-66.3,35.5-66.3,35.4-66.3,35.5C-66.3,35.4-66.3,35.4-66.3,35.5C-66.3,35.4-66.3,35.4-66.3,35.5l0.1-1.7c-1,0-1.7,0.8-1.7,1.7
					C-67.9,35.5-66.3,35.5-66.3,35.5z M-66.3,35.4L-66.3,35.4L-66.3,35.4L-66.3,35.4l1.7,0.1c0-0.9-0.7-1.7-1.7-1.7V35.4L-66.3,35.4
					z M-66.2,24.7C-66.2,24.7-66.2,24.8-66.2,24.7C-66.3,24.8-66.3,24.8-66.2,24.7C-66.3,24.8-66.3,24.8-66.2,24.7l-0.1,1.7
					c1,0,1.7-0.8,1.7-1.7H-66.2z M-66.3,24.8L-66.3,24.8L-66.3,24.8C-66.3,24.8-66.3,24.7-66.3,24.8l-1.6-0.1c0,0.9,0.7,1.7,1.6,1.7
					V24.8z M-66.3,24.7C-66.3,24.7-66.3,24.6-66.3,24.7C-66.3,24.6-66.3,24.6-66.3,24.7c0-0.1,0-0.1,0.1-0.1V23
					c-1,0-1.7,0.8-1.7,1.7H-66.3z M-66.3,24.6L-66.3,24.6L-66.3,24.6C-66.2,24.6-66.2,24.7-66.3,24.6l1.7,0.1c0-0.9-0.7-1.7-1.7-1.7
					V24.6L-66.3,24.6z"/>
			</g>
		</g>
		<g>
			<g>
				<defs>
					<rect id="SVGID_9_" y="0" width="134.7" height="13.3"/>
				</defs>
				<clipPath id="SVGID_10_">
					<use xlink:href="#SVGID_9_"  style="overflow:visible;"/>
				</clipPath>
				<path class="st6" d="M177.9,54.6c0,0.1,0.1,0.2,0.1,0.2c0,0.1,0,0.2-0.1,0.2c-0.1,0.1-0.2,0.1-0.3,0.1c-0.2,0-0.3-0.1-0.4-0.2
					l-1.3-2.1c-0.2-0.3-0.4-0.5-0.5-0.6c-0.2-0.1-0.4-0.2-0.8-0.2h-1.3v2.6c0,0.1,0,0.2-0.1,0.3S173,55,172.9,55s-0.2,0-0.3-0.1
					s-0.1-0.2-0.1-0.3v-6.3c0-0.1,0-0.2,0.1-0.3s0.2-0.1,0.3-0.1h2.5c0.8,0,1.4,0.2,1.8,0.5c0.4,0.3,0.6,0.8,0.6,1.5
					c0,0.6-0.2,1-0.5,1.4c-0.3,0.3-0.8,0.5-1.4,0.6c0.2,0.1,0.3,0.1,0.5,0.3c0.1,0.1,0.3,0.3,0.4,0.5L177.9,54.6z M175.3,51.4
					c0.5,0,1-0.1,1.2-0.3c0.3-0.2,0.4-0.6,0.4-1c0-0.5-0.1-0.8-0.4-1c-0.3-0.2-0.7-0.3-1.2-0.3h-2v2.7h2V51.4z M179.6,55.2
					c-0.1,0-0.2,0-0.3-0.1s-0.1-0.2-0.1-0.3v-4.2c0-0.1,0-0.2,0.1-0.3s0.2-0.1,0.3-0.1s0.2,0,0.3,0.1s0.1,0.2,0.1,0.3v4.2
					c0,0.1,0,0.2-0.1,0.3C179.9,55.1,179.8,55.2,179.6,55.2z M179.6,49.1c-0.2,0-0.3,0-0.4-0.1s-0.1-0.2-0.1-0.4
					c0-0.1,0-0.3,0.1-0.4c0.1-0.1,0.2-0.1,0.4-0.1s0.3,0,0.4,0.1c0.1,0.1,0.1,0.2,0.1,0.4S180,48.9,180,49S179.8,49.1,179.6,49.1z
					 M183.2,55.2c-0.3,0-0.6,0-0.9-0.1c-0.3-0.1-0.5-0.2-0.7-0.3c-0.1-0.1-0.2-0.2-0.3-0.2c0-0.1-0.1-0.2-0.1-0.3s0-0.2,0.1-0.2
					c0.1-0.1,0.1-0.1,0.2-0.1s0.2,0,0.4,0.1s0.4,0.2,0.6,0.3c0.2,0.1,0.4,0.1,0.7,0.1c0.4,0,0.6-0.1,0.8-0.2
					c0.2-0.1,0.3-0.3,0.3-0.5c0-0.1,0-0.3-0.1-0.3c-0.1-0.1-0.2-0.2-0.4-0.2c-0.2-0.1-0.4-0.1-0.8-0.2c-0.6-0.1-1-0.3-1.3-0.5
					s-0.4-0.5-0.4-0.9c0-0.3,0.1-0.5,0.2-0.8s0.4-0.4,0.7-0.5s0.6-0.2,1-0.2c0.3,0,0.5,0,0.8,0.1c0.2,0.1,0.5,0.2,0.6,0.3
					c0.2,0.2,0.3,0.3,0.3,0.5c0,0.1,0,0.2-0.1,0.2c-0.1,0.1-0.1,0.1-0.2,0.1c-0.1,0-0.2-0.1-0.4-0.2c-0.2-0.1-0.4-0.2-0.5-0.3
					c-0.2-0.1-0.4-0.1-0.6-0.1c-0.3,0-0.6,0.1-0.8,0.2c-0.2,0.1-0.3,0.3-0.3,0.6c0,0.1,0,0.3,0.1,0.4c0.1,0.1,0.2,0.2,0.4,0.2
					c0.2,0.1,0.4,0.1,0.7,0.2c0.5,0.1,0.8,0.2,1,0.3c0.3,0.1,0.4,0.3,0.5,0.4c0.1,0.2,0.2,0.4,0.2,0.7c0,0.4-0.2,0.8-0.5,1
					C184.2,55,183.8,55.2,183.2,55.2z M190.1,50.1c0.1,0,0.2,0,0.3,0.1s0.1,0.2,0.1,0.3v4.2c0,0.1,0,0.2-0.1,0.3s-0.2,0.1-0.3,0.1
					s-0.2,0-0.3-0.1s-0.1-0.2-0.1-0.3v-0.5c-0.2,0.3-0.4,0.5-0.6,0.7c-0.3,0.2-0.6,0.2-0.9,0.2c-0.6,0-1-0.2-1.3-0.5
					s-0.4-0.8-0.4-1.4v-2.7c0-0.1,0-0.2,0.1-0.3s0.2-0.1,0.3-0.1s0.2,0,0.3,0.1s0.1,0.2,0.1,0.3v2.7c0,0.4,0.1,0.8,0.3,1
					s0.4,0.3,0.8,0.3c0.4,0,0.8-0.1,1-0.4c0.3-0.3,0.4-0.6,0.4-1.1v-2.5c0-0.1,0-0.2,0.1-0.3C189.8,50.2,189.9,50.1,190.1,50.1z
					 M192.4,55.2c-0.1,0-0.2,0-0.3-0.1s-0.1-0.2-0.1-0.3v-6.4c0-0.1,0-0.2,0.1-0.3s0.2-0.1,0.3-0.1s0.2,0,0.3,0.1s0.1,0.2,0.1,0.3
					v6.4c0,0.1,0,0.2-0.1,0.3C192.6,55.1,192.5,55.2,192.4,55.2z M196.6,54.5c0.2,0,0.4,0.1,0.4,0.3c0,0.1,0,0.2-0.1,0.3
					s-0.2,0.1-0.4,0.1h-0.3c-0.5,0-0.9-0.2-1.2-0.5s-0.4-0.7-0.4-1.3v-2.5H194c-0.1,0-0.2,0-0.3-0.1s-0.1-0.1-0.1-0.2
					c0-0.1,0-0.2,0.1-0.2c0.1-0.1,0.2-0.1,0.3-0.1h0.7v-1.1c0-0.1,0-0.2,0.1-0.3s0.2-0.1,0.3-0.1s0.2,0,0.3,0.1s0.1,0.2,0.1,0.3v1.1
					h1.1c0.1,0,0.2,0,0.2,0.1c0.1,0.1,0.1,0.1,0.1,0.2c0,0.1,0,0.2-0.1,0.2c-0.1,0.1-0.1,0.1-0.2,0.1h-1.1v2.6
					c0,0.4,0.1,0.6,0.2,0.8c0.2,0.2,0.4,0.2,0.7,0.3L196.6,54.5z M199.8,50.1c1.2,0,1.8,0.6,1.8,1.9v2.7c0,0.1,0,0.2-0.1,0.3
					s-0.2,0.1-0.3,0.1s-0.2,0-0.3-0.1s-0.1-0.2-0.1-0.3v-0.5c-0.1,0.3-0.3,0.5-0.6,0.7s-0.6,0.2-0.9,0.2c-0.3,0-0.6-0.1-0.9-0.2
					c-0.3-0.1-0.5-0.3-0.6-0.5c-0.2-0.2-0.2-0.5-0.2-0.8c0-0.4,0.1-0.6,0.3-0.8s0.5-0.4,0.9-0.4c0.4-0.1,1-0.1,1.8-0.1h0.2V52
					c0-0.4-0.1-0.7-0.2-0.9c-0.2-0.2-0.4-0.3-0.8-0.3c-0.5,0-0.9,0.1-1.4,0.4c-0.2,0.1-0.3,0.2-0.4,0.2c-0.1,0-0.1,0-0.2-0.1
					c-0.1-0.1-0.1-0.1-0.1-0.2c0-0.1,0-0.2,0.1-0.2c0.1-0.1,0.2-0.1,0.3-0.2c0.2-0.1,0.5-0.2,0.8-0.3
					C199.2,50.2,199.5,50.1,199.8,50.1z M199.4,54.5c0.4,0,0.7-0.1,1-0.4c0.3-0.3,0.4-0.6,0.4-1v-0.3h-0.2c-0.6,0-1,0-1.3,0.1
					c-0.3,0-0.5,0.1-0.7,0.2c-0.1,0.1-0.2,0.3-0.2,0.5c0,0.3,0.1,0.5,0.3,0.6C198.9,54.4,199.1,54.5,199.4,54.5z M205.3,54.5
					c0.2,0,0.4,0.1,0.4,0.3c0,0.1,0,0.2-0.1,0.3s-0.2,0.1-0.4,0.1h-0.3c-0.5,0-0.9-0.2-1.2-0.5s-0.4-0.7-0.4-1.3v-2.5h-0.7
					c-0.1,0-0.2,0-0.3-0.1s-0.1-0.1-0.1-0.2c0-0.1,0-0.2,0.1-0.2c0.1-0.1,0.2-0.1,0.3-0.1h0.7v-1.1c0-0.1,0-0.2,0.1-0.3
					s0.2-0.1,0.3-0.1s0.2,0,0.3,0.1s0.1,0.2,0.1,0.3v1.1h1.1c0.1,0,0.2,0,0.2,0.1c0.1,0.1,0.1,0.1,0.1,0.2c0,0.1,0,0.2-0.1,0.2
					c-0.1,0.1-0.1,0.1-0.2,0.1h-1.1v2.6c0,0.4,0.1,0.6,0.2,0.8c0.2,0.2,0.4,0.2,0.7,0.3L205.3,54.5z M206.9,55.2
					c-0.1,0-0.2,0-0.3-0.1s-0.1-0.2-0.1-0.3v-4.2c0-0.1,0-0.2,0.1-0.3s0.2-0.1,0.3-0.1s0.2,0,0.3,0.1s0.1,0.2,0.1,0.3v4.2
					c0,0.1,0,0.2-0.1,0.3C207.1,55.1,207,55.2,206.9,55.2z M206.9,49.1c-0.2,0-0.3,0-0.4-0.1c-0.1-0.1-0.1-0.2-0.1-0.4
					c0-0.1,0-0.3,0.1-0.4c0.1-0.1,0.2-0.1,0.4-0.1s0.3,0,0.4,0.1c0.1,0.1,0.1,0.2,0.1,0.4s0,0.3-0.1,0.4
					C207.2,49,207,49.1,206.9,49.1z"/>
			</g>
		</g>
		<g>
			<g>
				<defs>
					<rect id="SVGID_11_" y="0" width="134.7" height="13.3"/>
				</defs>
				<clipPath id="SVGID_12_">
					<use xlink:href="#SVGID_11_"  style="overflow:visible;"/>
				</clipPath>
				<path class="st7" d="M198.9,22.2c0,0.9-2.6,1.7-5.8,1.7s-5.8-0.8-5.8-1.7s2.6-1.7,5.8-1.7S198.9,21.3,198.9,22.2z"/>
			</g>
		</g>
		<g>
			<g>
				<defs>
					<rect id="SVGID_13_" y="0" width="134.7" height="13.3"/>
				</defs>
				<clipPath id="SVGID_14_">
					<use xlink:href="#SVGID_13_"  style="overflow:visible;"/>
				</clipPath>
				<path class="st8" d="M198.9,25.3c0,0.9-2.6,1.7-5.8,1.7c-0.6,0-1.2,0-1.8-0.1c-0.1,0-3.6-0.5-3.6-0.5"/>
			</g>
		</g>
		<g>
			<g>
				<defs>
					<rect id="SVGID_15_" y="0" width="134.7" height="13.3"/>
				</defs>
				<clipPath id="SVGID_16_">
					<use xlink:href="#SVGID_15_"  style="overflow:visible;"/>
				</clipPath>
				<path class="st9" d="M198.9,28.5c0,0.9-2.5,1.7-5.6,1.7"/>
			</g>
		</g>
		<g>
			<g>
				<defs>
					<rect id="SVGID_17_" y="0" width="134.7" height="13.3"/>
				</defs>
				<clipPath id="SVGID_18_">
					<use xlink:href="#SVGID_17_"  style="overflow:visible;"/>
				</clipPath>
				<path class="st10" d="M198.9,31.8c0,0.9-2.4,1.6-5.5,1.7"/>
			</g>
		</g>
		<g>
			<g>
				<defs>
					<rect id="SVGID_19_" y="0" width="134.7" height="13.3"/>
				</defs>
				<clipPath id="SVGID_20_">
					<use xlink:href="#SVGID_19_"  style="overflow:visible;"/>
				</clipPath>
				<path class="st11" d="M187.2,22.8v3.9"/>
			</g>
		</g>
		<g>
			<g>
				<defs>
					<rect id="SVGID_21_" y="0" width="134.7" height="13.3"/>
				</defs>
				<clipPath id="SVGID_22_">
					<use xlink:href="#SVGID_21_"  style="overflow:visible;"/>
				</clipPath>
				<path class="st12" d="M198.9,22.8v9"/>
			</g>
		</g>
		<g>
			<g>
				<defs>
					<rect id="SVGID_23_" y="0" width="134.7" height="13.3"/>
				</defs>
				<clipPath id="SVGID_24_">
					<use xlink:href="#SVGID_23_"  style="overflow:visible;"/>
				</clipPath>
				<path class="st13" d="M193.3,32.7c0,3.3-2.6,6-5.8,6s-5.7-2.7-5.7-6s2.6-6,5.8-6C190.7,26.7,193.3,29.4,193.3,32.7z"/>
			</g>
		</g>
		<g>
			<g>
				<defs>
					<rect id="SVGID_25_" y="0" width="134.7" height="13.3"/>
				</defs>
				<clipPath id="SVGID_26_">
					<use xlink:href="#SVGID_25_"  style="overflow:visible;"/>
				</clipPath>
				<path class="st14" d="M187.2,36.6h-1v1h1V36.6z M187.2,35.6h1v-1h-1V35.6z M185.8,35.2l-0.9-0.3l-0.2,0.7l0.6,0.4L185.8,35.2z
					 M186,34.6l0.6-0.8l-1.1-0.8l-0.4,1.3L186,34.6z M187.4,32.9l0.4-0.9l0,0l0,0L187.4,32.9z M187.3,29.8l0.2,1l0.8-0.1v-0.8
					L187.3,29.8L187.3,29.8z M187.3,28.8v-1h-1v1H187.3z M187.9,28.8h1v-1h-1V28.8z M187.9,29.8h-1v1h1V29.8z M189,30.1l0.9,0.3
					l0.3-0.7l-0.6-0.4L189,30.1z M188.8,30.7l-0.5,0.8l1.1,0.7l0.4-1.2L188.8,30.7z M187.9,32.2l0.4-0.9l0,0L187.9,32.2z
					 M187.9,35.6l-0.2-1l-0.8,0.1v0.8h1V35.6z M187.9,36.6v1h1v-1H187.9z M188.2,36.6v-0.9h-2v0.9H188.2z M187.2,34.6
					c-0.1,0-0.3,0-0.5-0.1s-0.3-0.1-0.4-0.2l-1.1,1.6c0.5,0.3,1.2,0.6,2,0.6V34.6L187.2,34.6z M186.8,35.5l0.2-0.6l-1.9-0.6
					l-0.2,0.6L186.8,35.5z M185.5,35.4c0.5,0.3,1.1,0.6,1.9,0.6v-2c-0.3,0-0.5-0.1-0.7-0.2L185.5,35.4z M187.4,36
					c0.5,0,1-0.2,1.4-0.5c0.4-0.4,0.7-0.9,0.7-1.4h-2c0,0,0,0,0-0.1s0,0,0-0.1c0,0,0,0-0.1,0L187.4,36L187.4,36z M189.4,34.1
					c0-0.5-0.2-1-0.5-1.3s-0.7-0.5-1.1-0.7l-0.8,1.8c0.1,0.1,0.2,0.1,0.3,0.2c0.1,0,0.1,0.1,0.1,0.1l0,0l0,0
					C187.4,34.1,189.4,34.1,189.4,34.1z M187.8,32c-0.4-0.2-0.7-0.3-0.8-0.4l-0.1-0.1c0,0,0-0.1,0-0.2h-2c0,0.7,0.2,1.2,0.7,1.7
					c0.4,0.4,0.9,0.7,1.4,0.9L187.8,32z M186.9,31.3c0-0.2,0.1-0.4,0.6-0.5l-0.4-2c-1.2,0.2-2.2,1.1-2.2,2.5
					C184.9,31.3,186.9,31.3,186.9,31.3z M188.3,29.8v-0.9h-2v0.9H188.3z M187.3,29.8h0.5v-2h-0.5V29.8z M186.9,28.8v0.9h2v-0.9
					H186.9z M187.9,30.8c0.3,0,0.5,0.1,0.6,0.1l1.2-1.6c-0.4-0.3-1-0.5-1.8-0.5V30.8L187.9,30.8z M188.1,29.8l-0.2,0.6l1.9,0.7
					l0.2-0.6L188.1,29.8z M189.3,29.9c-0.3-0.2-0.8-0.5-1.7-0.5v2c0.3,0,0.5,0.1,0.6,0.2L189.3,29.9z M187.7,29.4
					c-0.6,0-1.1,0.2-1.4,0.6c-0.4,0.4-0.5,0.8-0.5,1.2h2c0,0,0,0.1-0.1,0.2h-0.1c0,0,0,0,0.1,0V29.4L187.7,29.4z M185.7,31.2
					c0,0.5,0.2,1,0.6,1.3c0.3,0.3,0.7,0.5,1.1,0.6l0.8-1.8c-0.2-0.1-0.3-0.1-0.4-0.2c-0.1-0.1-0.1-0.1-0.2-0.1c0,0,0,0,0,0.1
					s0,0.1,0,0.1C187.7,31.2,185.7,31.2,185.7,31.2z M187.5,33.2c0.4,0.2,0.6,0.3,0.7,0.4c0.1,0.1,0.1,0.2,0.1,0.4h2
					c0-0.6-0.2-1.2-0.6-1.7c-0.4-0.4-0.9-0.7-1.4-1L187.5,33.2z M188.3,34c0,0.3-0.2,0.5-0.6,0.6l0.3,2c1.4-0.2,2.3-1.3,2.3-2.6
					H188.3L188.3,34z M186.9,35.6v1h2v-1H186.9z M187.9,35.6h-0.7v2h0.7V35.6z"/>
			</g>
		</g>
	</g>
</g>
</svg>
