<svg width="22" height="26" viewBox="0 0 22 26" fill="none" xmlns="http://www.w3.org/2000/svg">
<path d="M21.2858 24.5713L21.2858 21.9999C21.2858 20.6359 20.7439 19.3278 19.7795 18.3633C18.815 17.3989 17.5069 16.857 16.1429 16.857L5.85721 16.857C4.49324 16.857 3.18514 17.3989 2.22066 18.3633C1.25619 19.3278 0.714355 20.6359 0.714355 21.9999L0.714355 24.5713M16.1429 6.57132C16.1429 9.41165 13.8404 11.7142 11.0001 11.7142C8.15975 11.7142 5.85721 9.41165 5.85721 6.57132C5.85721 3.731 8.15975 1.42847 11.0001 1.42847C13.8404 1.42847 16.1429 3.731 16.1429 6.57132Z" stroke="white" stroke-opacity="0.9" stroke-linecap="round"/>
</svg>
