<svg width="17" height="18" viewBox="0 0 17 18" fill="none" xmlns="http://www.w3.org/2000/svg">
<mask id="path-1-inside-1" fill="white">
<path d="M15.3 0H1.7C0.761116 0 0 0.805887 0 1.8V5.4C0 6.39411 0.761116 7.2 1.7 7.2H15.3C16.2389 7.2 17 6.39411 17 5.4V1.8C17 0.805887 16.2389 0 15.3 0Z"/>
<path d="M15.3 10.8H1.7C0.761116 10.8 0 11.6059 0 12.6V16.2C0 17.1941 0.761116 18 1.7 18H15.3C16.2389 18 17 17.1941 17 16.2V12.6C17 11.6059 16.2389 10.8 15.3 10.8Z"/>
<path d="M4.25 14.4C4.25 14.8971 3.86944 15.3 3.4 15.3C2.93056 15.3 2.55 14.8971 2.55 14.4C2.55 13.9029 2.93056 13.5 3.4 13.5C3.86944 13.5 4.25 13.9029 4.25 14.4Z"/>
<path d="M4.25 3.6C4.25 4.09706 3.86944 4.5 3.4 4.5C2.93056 4.5 2.55 4.09706 2.55 3.6C2.55 3.10294 2.93056 2.7 3.4 2.7C3.86944 2.7 4.25 3.10294 4.25 3.6Z"/>
</mask>
<path d="M1.7 0.8H15.3V-0.8H1.7V0.8ZM15.3 0.8C15.7546 0.8 16.2 1.20402 16.2 1.8H17.8C17.8 0.407758 16.7232 -0.8 15.3 -0.8V0.8ZM16.2 1.8V5.4H17.8V1.8H16.2ZM16.2 5.4C16.2 5.99598 15.7546 6.4 15.3 6.4V8C16.7232 8 17.8 6.79224 17.8 5.4H16.2ZM15.3 6.4H1.7V8H15.3V6.4ZM1.7 6.4C1.24541 6.4 0.8 5.99598 0.8 5.4H-0.8C-0.8 6.79224 0.276821 8 1.7 8V6.4ZM0.8 5.4V1.8H-0.8V5.4H0.8ZM0.8 1.8C0.8 1.20402 1.24541 0.8 1.7 0.8V-0.8C0.276821 -0.8 -0.8 0.407757 -0.8 1.8H0.8ZM1.7 11.6H15.3V10H1.7V11.6ZM15.3 11.6C15.7546 11.6 16.2 12.004 16.2 12.6H17.8C17.8 11.2078 16.7232 10 15.3 10V11.6ZM16.2 12.6V16.2H17.8V12.6H16.2ZM16.2 16.2C16.2 16.796 15.7546 17.2 15.3 17.2V18.8C16.7232 18.8 17.8 17.5922 17.8 16.2H16.2ZM15.3 17.2H1.7V18.8H15.3V17.2ZM1.7 17.2C1.24541 17.2 0.8 16.796 0.8 16.2H-0.8C-0.8 17.5922 0.276821 18.8 1.7 18.8V17.2ZM0.8 16.2V12.6H-0.8V16.2H0.8ZM0.8 12.6C0.8 12.004 1.24541 11.6 1.7 11.6V10C0.276821 10 -0.8 11.2078 -0.8 12.6H0.8ZM3.45 14.4C3.45 14.4424 3.43428 14.4714 3.41943 14.4871C3.41211 14.4948 3.40626 14.4981 3.40388 14.4991C3.40219 14.4999 3.40159 14.5 3.4 14.5V16.1C4.35374 16.1 5.05 15.2952 5.05 14.4H3.45ZM3.4 14.5C3.39841 14.5 3.39781 14.4999 3.39612 14.4991C3.39374 14.4981 3.38789 14.4948 3.38057 14.4871C3.36572 14.4714 3.35 14.4424 3.35 14.4H1.75C1.75 15.2952 2.44626 16.1 3.4 16.1V14.5ZM3.35 14.4C3.35 14.3576 3.36572 14.3286 3.38057 14.3129C3.38789 14.3052 3.39374 14.3019 3.39612 14.3009C3.39781 14.3001 3.39841 14.3 3.4 14.3V12.7C2.44626 12.7 1.75 13.5048 1.75 14.4H3.35ZM3.4 14.3C3.40159 14.3 3.40219 14.3001 3.40388 14.3009C3.40626 14.3019 3.41211 14.3052 3.41943 14.3129C3.43428 14.3286 3.45 14.3576 3.45 14.4H5.05C5.05 13.5048 4.35374 12.7 3.4 12.7V14.3ZM3.45 3.6C3.45 3.6424 3.43428 3.67137 3.41943 3.6871C3.41211 3.69485 3.40626 3.69808 3.40388 3.69915C3.40219 3.6999 3.40159 3.7 3.4 3.7V5.3C4.35374 5.3 5.05 4.49519 5.05 3.6H3.45ZM3.4 3.7C3.39841 3.7 3.39781 3.6999 3.39612 3.69915C3.39374 3.69808 3.38789 3.69485 3.38057 3.6871C3.36572 3.67137 3.35 3.6424 3.35 3.6H1.75C1.75 4.49519 2.44626 5.3 3.4 5.3V3.7ZM3.35 3.6C3.35 3.5576 3.36572 3.52863 3.38057 3.5129C3.38789 3.50515 3.39374 3.50192 3.39612 3.50085C3.39781 3.5001 3.39841 3.5 3.4 3.5V1.9C2.44626 1.9 1.75 2.70481 1.75 3.6H3.35ZM3.4 3.5C3.40159 3.5 3.40219 3.5001 3.40388 3.50085C3.40626 3.50192 3.41211 3.50515 3.41943 3.5129C3.43428 3.52863 3.45 3.5576 3.45 3.6H5.05C5.05 2.70481 4.35374 1.9 3.4 1.9V3.5Z" fill="white" fill-opacity="0.9" mask="url(#path-1-inside-1)"/>
</svg>
