<svg width="20" height="21" viewBox="0 0 20 21" fill="none" xmlns="http://www.w3.org/2000/svg">
<path d="M18.5714 3.1225C18.5714 4.06832 15.9564 4.82498 12.7239 4.82498C9.49148 4.82498 6.87646 4.06832 6.87646 3.1225C6.87646 2.17667 9.49148 1.42001 12.7239 1.42001C15.9564 1.42001 18.5714 2.17667 18.5714 3.1225Z" stroke="white" stroke-opacity="0.9" stroke-miterlimit="10" stroke-linecap="round"/>
<path d="M18.5715 6.14914C18.5715 7.09496 15.9564 7.85162 12.724 7.85162C12.1066 7.85162 11.5254 7.81379 10.9443 7.77595C10.8717 7.77595 7.38501 7.32196 7.34869 7.28413" stroke="white" stroke-opacity="0.9" stroke-miterlimit="10" stroke-linecap="round"/>
<path d="M18.5714 9.4408C18.5714 10.3488 16.1017 11.1054 13.0145 11.1433" stroke="white" stroke-opacity="0.9" stroke-miterlimit="10" stroke-linecap="round"/>
<path d="M18.5714 12.732C18.5714 13.64 16.1379 14.3588 13.0871 14.4344" stroke="white" stroke-opacity="0.9" stroke-miterlimit="10" stroke-linecap="round"/>
<path d="M6.87646 3.65207V7.51103" stroke="white" stroke-opacity="0.9" stroke-miterlimit="10" stroke-linecap="round"/>
<path d="M18.5714 3.65207V12.6941" stroke="white" stroke-opacity="0.9" stroke-miterlimit="10" stroke-linecap="round"/>
<path d="M12.9418 13.5646C12.9418 16.8939 10.3632 19.58 7.16703 19.58C4.00722 19.58 1.42853 16.8939 1.42853 13.5646C1.42853 10.2353 4.00722 7.54913 7.20335 7.54913C10.3632 7.58697 12.9418 10.2731 12.9418 13.5646Z" stroke="white" stroke-opacity="0.9" stroke-miterlimit="10" stroke-linecap="round"/>
<mask id="path-8-inside-1" fill="white">
<path d="M6.87642 17.4612V16.5153C6.36795 16.5153 5.82315 16.3262 5.49628 16.0992L5.71419 15.456C6.04107 15.683 6.51323 15.8722 7.0217 15.8722C7.67545 15.8722 8.11129 15.4939 8.11129 14.9642C8.11129 14.4345 7.74809 14.1319 7.09434 13.8292C6.15003 13.4509 5.60524 13.0347 5.60524 12.2024C5.60524 11.4079 6.15003 10.8404 6.98538 10.6891V9.74326H7.53017V10.6512C8.07497 10.6512 8.43817 10.8026 8.6924 10.9917L8.47448 11.5971C8.29289 11.4836 7.92969 11.2944 7.34858 11.2944C6.6585 11.2944 6.40427 11.7106 6.40427 12.0889C6.40427 12.5807 6.73114 12.8077 7.53017 13.1482C8.47448 13.5644 8.94664 14.0184 8.94664 14.8885C8.94664 15.6452 8.43816 16.3262 7.53017 16.4775V17.4612H6.87642Z"/>
</mask>
<path d="M6.87642 17.4612H5.87642V18.4612H6.87642V17.4612ZM6.87642 16.5153H7.87642V15.5153H6.87642V16.5153ZM5.49628 16.0992L4.54917 15.7783L4.30761 16.4912L4.92588 16.9206L5.49628 16.0992ZM5.71419 15.456L6.28459 14.6347L5.1934 13.8769L4.76708 15.1351L5.71419 15.456ZM7.09434 13.8292L7.51446 12.9217L7.49063 12.9107L7.46624 12.9009L7.09434 13.8292ZM6.98538 10.6891L7.16364 11.6731L7.98538 11.5242V10.6891H6.98538ZM6.98538 9.74326V8.74326H5.98538V9.74326H6.98538ZM7.53017 9.74326H8.53017V8.74326H7.53017V9.74326ZM7.53017 10.6512H6.53017V11.6512H7.53017V10.6512ZM8.6924 10.9917L9.63329 11.3305L9.88461 10.6324L9.28934 10.1895L8.6924 10.9917ZM8.47448 11.5971L7.94449 12.4451L8.99554 13.102L9.41537 11.9358L8.47448 11.5971ZM7.53017 13.1482L7.93348 12.2331L7.9222 12.2283L7.53017 13.1482ZM7.53017 16.4775L7.36578 15.4911L6.53017 15.6304V16.4775H7.53017ZM7.53017 17.4612V18.4612H8.53017V17.4612H7.53017ZM7.87642 17.4612V16.5153H5.87642V17.4612H7.87642ZM6.87642 15.5153C6.7405 15.5153 6.57896 15.489 6.41823 15.4384C6.25504 15.3871 6.13235 15.3234 6.06667 15.2778L4.92588 16.9206C5.41887 17.2629 6.1624 17.5153 6.87642 17.5153V15.5153ZM6.44339 16.4201L6.66131 15.7769L4.76708 15.1351L4.54917 15.7783L6.44339 16.4201ZM5.1438 16.2774C5.6091 16.6005 6.27661 16.8722 7.0217 16.8722V14.8722C6.74984 14.8722 6.47304 14.7655 6.28459 14.6347L5.1438 16.2774ZM7.0217 16.8722C7.53701 16.8722 8.05199 16.7222 8.4563 16.3813C8.87259 16.0303 9.11129 15.5234 9.11129 14.9642H7.11129C7.11129 14.9573 7.11323 14.9358 7.12605 14.9082C7.13876 14.8809 7.15542 14.8621 7.167 14.8523C7.18995 14.833 7.16014 14.8722 7.0217 14.8722V16.8722ZM9.11129 14.9642C9.11129 14.4301 8.91279 13.9768 8.56936 13.619C8.26433 13.3013 7.87125 13.0869 7.51446 12.9217L6.67422 14.7367C6.81445 14.8016 6.91882 14.8573 6.99676 14.9063C7.07476 14.9554 7.11183 14.9887 7.12658 15.0041C7.13836 15.0164 7.12923 15.01 7.11954 14.9865C7.10952 14.9621 7.11129 14.9496 7.11129 14.9642H9.11129ZM7.46624 12.9009C7.02603 12.7246 6.81038 12.587 6.70435 12.4805C6.66061 12.4366 6.64212 12.4041 6.63153 12.378C6.62053 12.3509 6.60524 12.299 6.60524 12.2024H4.60524C4.60524 12.8749 4.84057 13.4432 5.28699 13.8916C5.68943 14.2958 6.21834 14.5555 6.72244 14.7575L7.46624 12.9009ZM6.60524 12.2024C6.60524 11.9768 6.71479 11.7544 7.16364 11.6731L6.80712 9.70509C5.58527 9.92644 4.60524 10.839 4.60524 12.2024H6.60524ZM7.98538 10.6891V9.74326H5.98538V10.6891H7.98538ZM6.98538 10.7433H7.53017V8.74326H6.98538V10.7433ZM6.53017 9.74326V10.6512H8.53017V9.74326H6.53017ZM7.53017 11.6512C7.8712 11.6512 8.02261 11.7398 8.09546 11.794L9.28934 10.1895C8.85372 9.86533 8.27874 9.65125 7.53017 9.65125V11.6512ZM7.75151 10.653L7.5336 11.2583L9.41537 11.9358L9.63329 11.3305L7.75151 10.653ZM9.00448 10.7491C8.71388 10.5674 8.16836 10.2944 7.34858 10.2944V12.2944C7.69102 12.2944 7.8719 12.3997 7.94449 12.4451L9.00448 10.7491ZM7.34858 10.2944C6.79611 10.2944 6.28274 10.4667 5.90699 10.8462C5.54148 11.2154 5.40427 11.6827 5.40427 12.0889H7.40427C7.40427 12.1167 7.39417 12.1868 7.3283 12.2533C7.29637 12.2856 7.26758 12.2992 7.25829 12.3027C7.2513 12.3053 7.27615 12.2944 7.34858 12.2944V10.2944ZM5.40427 12.0889C5.40427 12.6213 5.60884 13.0735 6.00467 13.424C6.32264 13.7055 6.74658 13.9013 7.13815 14.0682L7.9222 12.2283C7.73293 12.1476 7.5945 12.0832 7.49051 12.0273C7.38519 11.9707 7.34231 11.9371 7.33049 11.9266C7.32486 11.9216 7.35424 11.947 7.37962 12.0034C7.40498 12.0597 7.40427 12.0979 7.40427 12.0889H5.40427ZM7.1269 14.0633C7.55224 14.2507 7.74392 14.3951 7.8346 14.5005C7.89315 14.5685 7.94664 14.658 7.94664 14.8885H9.94664C9.94664 14.2489 9.76405 13.6763 9.35045 13.1958C8.96897 12.7526 8.45242 12.4619 7.93345 12.2331L7.1269 14.0633ZM7.94664 14.8885C7.94664 15.1555 7.79245 15.42 7.36578 15.4911L7.69457 17.4639C9.08388 17.2324 9.94664 16.1349 9.94664 14.8885H7.94664ZM6.53017 16.4775V17.4612H8.53017V16.4775H6.53017ZM7.53017 16.4612H6.87642V18.4612H7.53017V16.4612Z" fill="white" fill-opacity="0.9" mask="url(#path-8-inside-1)"/>
</svg>
