<svg width="132" height="337" viewBox="0 0 132 337" fill="none" xmlns="http://www.w3.org/2000/svg">
<rect opacity="0.0888286" x="108.447" y="41.0969" width="30.376" height="8.23944" rx="4.11972" transform="rotate(90 108.447 41.0969)" fill="white"/>
<rect opacity="0.113996" x="23.6495" y="1.52588e-05" width="15.188" height="4.80634" rx="2.40317" transform="rotate(90 23.6495 1.52588e-05)" fill="white"/>
<rect opacity="0.113996" x="131.792" y="333.689" width="19.655" height="6.8662" rx="3.4331" transform="rotate(90 131.792 333.689)" fill="white"/>
<rect opacity="0.0456924" x="79.2659" y="194.094" width="30.376" height="4.80634" rx="2.40317" transform="rotate(90 79.2659 194.094)" fill="white"/>
<rect opacity="0.0456924" x="109.134" y="228.043" width="6.92393" height="4.80634" rx="2.40317" transform="rotate(90 109.134 228.043)" fill="white"/>
<rect opacity="0.0456924" x="60.0403" y="265.343" width="21.2185" height="8.23944" rx="4.11972" transform="rotate(90 60.0403 265.343)" fill="white"/>
<rect opacity="0.0429129" x="119.776" y="71.4729" width="14.0712" height="4.80634" rx="2.40317" transform="rotate(90 119.776 71.4729)" fill="white"/>
</svg>
