<svg width="178" height="371" viewBox="0 0 178 371" fill="none" xmlns="http://www.w3.org/2000/svg">
<rect opacity="0.0888286" x="154.447" y="41.0969" width="30.376" height="8.23944" rx="4.11972" transform="rotate(90 154.447 41.0969)" fill="white"/>
<rect opacity="0.113996" x="50.0808" y="340.166" width="30.376" height="8.23944" rx="4.11972" transform="rotate(90 50.0808 340.166)" fill="white"/>
<rect opacity="0.113996" x="69.6495" width="15.188" height="4.80634" rx="2.40317" transform="rotate(90 69.6495 0)" fill="white"/>
<rect opacity="0.113996" x="177.792" y="333.689" width="19.655" height="6.8662" rx="3.4331" transform="rotate(90 177.792 333.689)" fill="white"/>
<rect opacity="0.0456924" x="125.266" y="194.094" width="30.376" height="4.80634" rx="2.40317" transform="rotate(90 125.266 194.094)" fill="white"/>
<rect opacity="0.0456924" x="155.134" y="228.043" width="6.92393" height="4.80634" rx="2.40317" transform="rotate(90 155.134 228.043)" fill="white"/>
<rect opacity="0.0456924" x="106.04" y="265.343" width="21.2185" height="8.23944" rx="4.11972" transform="rotate(90 106.04 265.343)" fill="white"/>
<rect opacity="0.0429129" x="165.776" y="71.4728" width="14.0712" height="4.80634" rx="2.40317" transform="rotate(90 165.776 71.4728)" fill="white"/>
</svg>
